{
    "asset" : {
        "generator" : "Khronos glTF Blender I/O v1.3.48",
        "version" : "2.0"
    },
    "scene" : 0,
    "scenes" : [
        {
            "name" : "Scene",
            "nodes" : [
                0,
                1,
                2,
                3,
                4,
                5,
                6,
                7,
                8,
                9,
                10,
                11,
                12,
                13,
                14,
                15,
                16,
                17,
                18,
                19,
                20,
                21,
                22,
                23,
                24,
                25,
                26,
                27,
                28,
                29,
                30
            ]
        }
    ],
    "nodes" : [
        {
            "mesh" : 0,
            "name" : "Pont.002"
        },
        {
            "mesh" : 0,
            "name" : "Pont.003",
            "translation" : [
                0,
                0,
                -8.57368278503418
            ]
        },
        {
            "mesh" : 0,
            "name" : "Pont.005",
            "translation" : [
                0,
                0,
                -17.14736557006836
            ]
        },
        {
            "mesh" : 0,
            "name" : "Pont.006",
            "translation" : [
                0,
                0,
                -25.72104835510254
            ]
        },
        {
            "mesh" : 0,
            "name" : "Pont.007",
            "translation" : [
                0,
                0,
                -102.88419342041016
            ]
        },
        {
            "mesh" : 0,
            "name" : "Pont.008",
            "translation" : [
                0,
                0,
                -111.45787811279297
            ]
        },
        {
            "mesh" : 0,
            "name" : "Pont.009",
            "translation" : [
                0,
                0,
                -120.03155517578125
            ]
        },
        {
            "mesh" : 0,
            "name" : "Pont.010",
            "translation" : [
                0,
                0,
                -128.60523986816406
            ]
        },
        {
            "mesh" : 0,
            "name" : "Pont.011",
            "translation" : [
                0,
                0,
                -68.58946228027344
            ]
        },
        {
            "mesh" : 0,
            "name" : "Pont.012",
            "translation" : [
                0,
                0,
                -77.16314697265625
            ]
        },
        {
            "mesh" : 0,
            "name" : "Pont.013",
            "translation" : [
                0,
                0,
                -85.73683166503906
            ]
        },
        {
            "mesh" : 0,
            "name" : "Pont.014",
            "translation" : [
                0,
                0,
                -94.31050872802734
            ]
        },
        {
            "mesh" : 0,
            "name" : "Pont.015",
            "translation" : [
                0,
                0,
                -34.29473114013672
            ]
        },
        {
            "mesh" : 0,
            "name" : "Pont.016",
            "translation" : [
                0,
                0,
                -42.86841583251953
            ]
        },
        {
            "mesh" : 0,
            "name" : "Pont.017",
            "translation" : [
                0,
                0,
                -51.44209671020508
            ]
        },
        {
            "mesh" : 0,
            "name" : "Pont.018",
            "translation" : [
                0,
                0,
                -60.015777587890625
            ]
        },
        {
            "mesh" : 0,
            "name" : "Pont.019",
            "translation" : [
                0,
                0,
                128.60523986816406
            ]
        },
        {
            "mesh" : 0,
            "name" : "Pont.020",
            "translation" : [
                0,
                0,
                120.03155517578125
            ]
        },
        {
            "mesh" : 0,
            "name" : "Pont.021",
            "translation" : [
                0,
                0,
                111.45787811279297
            ]
        },
        {
            "mesh" : 0,
            "name" : "Pont.022",
            "translation" : [
                0,
                0,
                34.29473114013672
            ]
        },
        {
            "mesh" : 0,
            "name" : "Pont.023",
            "translation" : [
                0,
                0,
                25.721046447753906
            ]
        },
        {
            "mesh" : 0,
            "name" : "Pont.024",
            "translation" : [
                0,
                0,
                17.147369384765625
            ]
        },
        {
            "mesh" : 0,
            "name" : "Pont.025",
            "translation" : [
                0,
                0,
                8.573684692382812
            ]
        },
        {
            "mesh" : 0,
            "name" : "Pont.026",
            "translation" : [
                0,
                0,
                68.58946228027344
            ]
        },
        {
            "mesh" : 0,
            "name" : "Pont.027",
            "translation" : [
                0,
                0,
                60.015777587890625
            ]
        },
        {
            "mesh" : 0,
            "name" : "Pont.028",
            "translation" : [
                0,
                0,
                51.44209289550781
            ]
        },
        {
            "mesh" : 0,
            "name" : "Pont.029",
            "translation" : [
                0,
                0,
                42.86841583251953
            ]
        },
        {
            "mesh" : 0,
            "name" : "Pont.030",
            "translation" : [
                0,
                0,
                102.88419342041016
            ]
        },
        {
            "mesh" : 0,
            "name" : "Pont.031",
            "translation" : [
                0,
                0,
                94.31050872802734
            ]
        },
        {
            "mesh" : 0,
            "name" : "Pont.032",
            "translation" : [
                0,
                0,
                85.73683166503906
            ]
        },
        {
            "mesh" : 0,
            "name" : "Pont.033",
            "translation" : [
                0,
                0,
                77.16314697265625
            ]
        }
    ],
    "materials" : [
        {
            "doubleSided" : true,
            "emissiveFactor" : [
                0,
                0,
                0
            ],
            "name" : "BridgeMat",
            "pbrMetallicRoughness" : {
                "baseColorTexture" : {
                    "index" : 0,
                    "texCoord" : 0
                },
                "metallicFactor" : 0,
                "roughnessFactor" : 0.5
            }
        }
    ],
    "meshes" : [
        {
            "name" : "BridgeMesh",
            "primitives" : [
                {
                    "attributes" : {
                        "POSITION" : 0,
                        "NORMAL" : 1,
                        "TEXCOORD_0" : 2
                    },
                    "indices" : 3,
                    "material" : 0
                }
            ]
        }
    ],
    "textures" : [
        {
            "sampler" : 0,
            "source" : 0
        }
    ],
    "images" : [
        {
            "mimeType" : "image/png",
            "name" : "BridgePalette",
            "uri" : "BridgePalette.png"
        }
    ],
    "accessors" : [
        {
            "bufferView" : 0,
            "componentType" : 5126,
            "count" : 970,
            "max" : [
                1.6339902877807617,
                34,
                4.2868428230285645
            ],
            "min" : [
                -1.6339902877807617,
                -9.5367431640625e-07,
                -4.2868428230285645
            ],
            "type" : "VEC3"
        },
        {
            "bufferView" : 1,
            "componentType" : 5126,
            "count" : 970,
            "type" : "VEC3"
        },
        {
            "bufferView" : 2,
            "componentType" : 5126,
            "count" : 970,
            "type" : "VEC2"
        },
        {
            "bufferView" : 3,
            "componentType" : 5123,
            "count" : 2064,
            "type" : "SCALAR"
        }
    ],
    "bufferViews" : [
        {
            "buffer" : 0,
            "byteLength" : 11640,
            "byteOffset" : 0
        },
        {
            "buffer" : 0,
            "byteLength" : 11640,
            "byteOffset" : 11640
        },
        {
            "buffer" : 0,
            "byteLength" : 7760,
            "byteOffset" : 23280
        },
        {
            "buffer" : 0,
            "byteLength" : 4128,
            "byteOffset" : 31040
        }
    ],
    "samplers" : [
        {
            "magFilter" : 9728,
            "minFilter" : 9984
        }
    ],
    "buffers" : [
        {
            "byteLength" : 35168,
            "uri" : "scene.bin"
        }
    ]
}
