{
    "asset" : {
        "generator" : "Khronos glTF Blender I/O v1.3.48",
        "version" : "2.0"
    },
    "scene" : 0,
    "scenes" : [
        {
            "name" : "Scene",
            "nodes" : [
                0
            ]
        }
    ],
    "nodes" : [
        {
            "mesh" : 0,
            "name" : "Pont",
            "rotation" : [
                0,
                0.6064677834510803,
                0,
                0.7951080799102783
            ],
            "translation" : [
                177.4924774169922,
                7.786245346069336,
                48.595123291015625
            ]
        }
    ],
    "materials" : [
        {
            "doubleSided" : true,
            "emissiveFactor" : [
                0,
                0,
                0
            ],
            "name" : "Pierrebas",
            "pbrMetallicRoughness" : {
                "baseColorFactor" : [
                    0.9113937616348267,
                    0.8405575156211853,
                    0.7106095552444458,
                    1
                ],
                "metallicFactor" : 0,
                "roughnessFactor" : 0.5
            }
        },
        {
            "doubleSided" : true,
            "emissiveFactor" : [
                0,
                0,
                0
            ],
            "name" : "Pierrehaute",
            "pbrMetallicRoughness" : {
                "baseColorFactor" : [
                    0.438821405172348,
                    0.38717663288116455,
                    0.467201828956604,
                    1
                ],
                "metallicFactor" : 0,
                "roughnessFactor" : 0.5
            }
        },
        {
            "doubleSided" : true,
            "emissiveFactor" : [
                0,
                0,
                0
            ],
            "name" : "ombres",
            "pbrMetallicRoughness" : {
                "baseColorFactor" : [
                    0.00019011985568795353,
                    0,
                    0.008075856603682041,
                    1
                ],
                "metallicFactor" : 0,
                "roughnessFactor" : 0.5
            }
        },
        {
            "doubleSided" : true,
            "emissiveFactor" : [
                0,
                0,
                0
            ],
            "name" : "reflet",
            "pbrMetallicRoughness" : {
                "baseColorFactor" : [
                    0.07231932133436203,
                    0.20582126080989838,
                    0.8000000715255737,
                    1
                ],
                "metallicFactor" : 0,
                "roughnessFactor" : 0.5
            }
        }
    ],
    "meshes" : [
        {
            "name" : "Cube.001",
            "primitives" : [
                {
                    "attributes" : {
                        "POSITION" : 0,
                        "NORMAL" : 1,
                        "TEXCOORD_0" : 2
                    },
                    "indices" : 3,
                    "material" : 0
                },
                {
                    "attributes" : {
                        "POSITION" : 4,
                        "NORMAL" : 5,
                        "TEXCOORD_0" : 6
                    },
                    "indices" : 7,
                    "material" : 1
                },
                {
                    "attributes" : {
                        "POSITION" : 8,
                        "NORMAL" : 9,
                        "TEXCOORD_0" : 10
                    },
                    "indices" : 11,
                    "material" : 2
                },
                {
                    "attributes" : {
                        "POSITION" : 12,
                        "NORMAL" : 13,
                        "TEXCOORD_0" : 14
                    },
                    "indices" : 15,
                    "material" : 3
                }
            ]
        }
    ],
    "accessors" : [
        {
            "bufferView" : 0,
            "componentType" : 5126,
            "count" : 5672,
            "max" : [
                1.7121319770812988,
                9.699999809265137,
                0.7098288536071777
            ],
            "min" : [
                -1.7121319770812988,
                -12.000000953674316,
                -381.8817443847656
            ],
            "type" : "VEC3"
        },
        {
            "bufferView" : 1,
            "componentType" : 5126,
            "count" : 5672,
            "type" : "VEC3"
        },
        {
            "bufferView" : 2,
            "componentType" : 5126,
            "count" : 5672,
            "type" : "VEC2"
        },
        {
            "bufferView" : 3,
            "componentType" : 5123,
            "count" : 11610,
            "type" : "SCALAR"
        },
        {
            "bufferView" : 4,
            "componentType" : 5126,
            "count" : 10422,
            "max" : [
                1.5000004768371582,
                22,
                0.49769678711891174
            ],
            "min" : [
                -1.5000001192092896,
                -12.000000953674316,
                -381.8817443847656
            ],
            "type" : "VEC3"
        },
        {
            "bufferView" : 5,
            "componentType" : 5126,
            "count" : 10422,
            "type" : "VEC3"
        },
        {
            "bufferView" : 6,
            "componentType" : 5126,
            "count" : 10422,
            "type" : "VEC2"
        },
        {
            "bufferView" : 7,
            "componentType" : 5123,
            "count" : 20250,
            "type" : "SCALAR"
        },
        {
            "bufferView" : 8,
            "componentType" : 5126,
            "count" : 13321,
            "max" : [
                1.7121319770812988,
                22,
                0.7098288536071777
            ],
            "min" : [
                -1.7121319770812988,
                -12.000000953674316,
                -381.8817443847656
            ],
            "type" : "VEC3"
        },
        {
            "bufferView" : 9,
            "componentType" : 5126,
            "count" : 13321,
            "type" : "VEC3"
        },
        {
            "bufferView" : 10,
            "componentType" : 5126,
            "count" : 13321,
            "type" : "VEC2"
        },
        {
            "bufferView" : 11,
            "componentType" : 5123,
            "count" : 21195,
            "type" : "SCALAR"
        },
        {
            "bufferView" : 12,
            "componentType" : 5126,
            "count" : 1755,
            "max" : [
                1.000000238418579,
                6.736320495605469,
                -1
            ],
            "min" : [
                0.8403226137161255,
                -12.000000953674316,
                -378.1317443847656
            ],
            "type" : "VEC3"
        },
        {
            "bufferView" : 13,
            "componentType" : 5126,
            "count" : 1755,
            "type" : "VEC3"
        },
        {
            "bufferView" : 14,
            "componentType" : 5126,
            "count" : 1755,
            "type" : "VEC2"
        },
        {
            "bufferView" : 15,
            "componentType" : 5123,
            "count" : 2835,
            "type" : "SCALAR"
        }
    ],
    "bufferViews" : [
        {
            "buffer" : 0,
            "byteLength" : 68064,
            "byteOffset" : 0
        },
        {
            "buffer" : 0,
            "byteLength" : 68064,
            "byteOffset" : 68064
        },
        {
            "buffer" : 0,
            "byteLength" : 45376,
            "byteOffset" : 136128
        },
        {
            "buffer" : 0,
            "byteLength" : 23220,
            "byteOffset" : 181504
        },
        {
            "buffer" : 0,
            "byteLength" : 125064,
            "byteOffset" : 204724
        },
        {
            "buffer" : 0,
            "byteLength" : 125064,
            "byteOffset" : 329788
        },
        {
            "buffer" : 0,
            "byteLength" : 83376,
            "byteOffset" : 454852
        },
        {
            "buffer" : 0,
            "byteLength" : 40500,
            "byteOffset" : 538228
        },
        {
            "buffer" : 0,
            "byteLength" : 159852,
            "byteOffset" : 578728
        },
        {
            "buffer" : 0,
            "byteLength" : 159852,
            "byteOffset" : 738580
        },
        {
            "buffer" : 0,
            "byteLength" : 106568,
            "byteOffset" : 898432
        },
        {
            "buffer" : 0,
            "byteLength" : 42390,
            "byteOffset" : 1005000
        },
        {
            "buffer" : 0,
            "byteLength" : 21060,
            "byteOffset" : 1047392
        },
        {
            "buffer" : 0,
            "byteLength" : 21060,
            "byteOffset" : 1068452
        },
        {
            "buffer" : 0,
            "byteLength" : 14040,
            "byteOffset" : 1089512
        },
        {
            "buffer" : 0,
            "byteLength" : 5670,
            "byteOffset" : 1103552
        }
    ],
    "buffers" : [
        {
            "byteLength" : 1109224,
            "uri" : "Env_arcueil_Bridgeonly_reflets.bin"
        }
    ]
}
