{
    "asset" : {
        "generator" : "Khronos glTF Blender I/O v1.4.40",
        "version" : "2.0"
    },
    "extensionsUsed" : [
        "KHR_texture_transform"
    ],
    "extensionsRequired" : [
        "KHR_texture_transform"
    ],
    "scene" : 0,
    "scenes" : [
        {
            "name" : "Scene",
            "nodes" : [
                0,
                35
            ]
        }
    ],
    "nodes" : [
        {
            "mesh" : 0,
            "name" : "Sol",
            "scale" : [
                1,
                3.5,
                1
            ],
            "translation" : [
                0,
                17,
                0
            ]
        },
        {
            "name" : "Spine13",
            "rotation" : [
                0.14577625691890717,
                0.07044371962547302,
                -0.0390670970082283,
                0.9860328435897827
            ],
            "scale" : [
                1,
                1.0000001192092896,
                0.9999999403953552
            ],
            "translation" : [
                -2.2351766659767236e-08,
                0.08799978345632553,
                -4.1882972090512283e-10
            ]
        },
        {
            "children" : [
                1
            ],
            "name" : "Spine12",
            "rotation" : [
                0.07315627485513687,
                0.09899616986513138,
                -0.0008276968146674335,
                0.9923948049545288
            ],
            "scale" : [
                0.9999999403953552,
                0.9999999403953552,
                0.9999998807907104
            ],
            "translation" : [
                7.450429162503269e-09,
                0.10836715996265411,
                1.2081751776804595e-07
            ]
        },
        {
            "children" : [
                2
            ],
            "name" : "Spine11",
            "rotation" : [
                0.08841847628355026,
                0.013764011673629284,
                -0.012059652246534824,
                0.995915412902832
            ],
            "scale" : [
                1,
                0.9999999403953552,
                1
            ],
            "translation" : [
                -7.450394967634111e-09,
                0.11393186450004578,
                -8.134519191571599e-08
            ]
        },
        {
            "children" : [
                3
            ],
            "name" : "Spine10",
            "rotation" : [
                0.013842008076608181,
                -0.04656783491373062,
                -0.020923800766468048,
                0.9986000657081604
            ],
            "scale" : [
                1,
                1.000000238418579,
                1.0000001192092896
            ],
            "translation" : [
                9.312360882418602e-10,
                0.11249211430549622,
                2.6948863141029733e-09
            ]
        },
        {
            "children" : [
                4
            ],
            "name" : "Spine9",
            "rotation" : [
                0.04994790256023407,
                -0.01110320258885622,
                0.0032048672437667847,
                0.9986850619316101
            ],
            "scale" : [
                1,
                0.9999999403953552,
                1.0000001192092896
            ],
            "translation" : [
                -6.984989031622035e-09,
                0.09558066725730896,
                8.0156645765328e-09
            ]
        },
        {
            "children" : [
                5
            ],
            "name" : "Spine8",
            "rotation" : [
                0.06209840625524521,
                -0.010978257283568382,
                -0.007374675013124943,
                0.9979824423789978
            ],
            "translation" : [
                -3.7252541051913113e-09,
                0.15774261951446533,
                2.521442077352276e-08
            ]
        },
        {
            "children" : [
                6
            ],
            "name" : "Spine7",
            "rotation" : [
                0.09119126200675964,
                -0.05551262944936752,
                0.012683583423495293,
                0.994204044342041
            ],
            "scale" : [
                1,
                0.9999999403953552,
                1
            ],
            "translation" : [
                7.4503723190844084e-09,
                0.16462655365467072,
                6.905781191335336e-08
            ]
        },
        {
            "children" : [
                7
            ],
            "name" : "Spine6",
            "rotation" : [
                0.0381137877702713,
                0.04564470425248146,
                0.029218386858701706,
                0.9978026747703552
            ],
            "scale" : [
                1,
                0.9999998807907104,
                1.0000001192092896
            ],
            "translation" : [
                9.354266628869637e-14,
                0.17694707214832306,
                3.374441348569235e-08
            ]
        },
        {
            "children" : [
                8
            ],
            "name" : "Spine5",
            "rotation" : [
                0.06665927171707153,
                0.024614155292510986,
                0.00970032624900341,
                0.9974249601364136
            ],
            "translation" : [
                3.725403985299636e-09,
                0.17812401056289673,
                1.782237646352769e-08
            ]
        },
        {
            "children" : [
                9
            ],
            "name" : "Spine4",
            "rotation" : [
                0.04205285385251045,
                -0.0037147721741348505,
                0.02268153615295887,
                0.9988510012626648
            ],
            "scale" : [
                1.0000001192092896,
                1,
                1
            ],
            "translation" : [
                -4.494028169347783e-15,
                0.18613223731517792,
                -3.724289854289964e-08
            ]
        },
        {
            "children" : [
                10
            ],
            "name" : "Spine3",
            "rotation" : [
                0.05655911564826965,
                -0.006496629677712917,
                0.031015535816550255,
                0.9978962540626526
            ],
            "scale" : [
                1.0000001192092896,
                0.9999999403953552,
                0.9999999403953552
            ],
            "translation" : [
                -2.0165845989600362e-13,
                0.1746649295091629,
                5.4759439649387787e-08
            ]
        },
        {
            "children" : [
                11
            ],
            "name" : "Spine2",
            "rotation" : [
                -0.007745115552097559,
                0.004079529549926519,
                -0.019729137420654297,
                0.9997670650482178
            ],
            "scale" : [
                0.9999999403953552,
                1,
                1
            ],
            "translation" : [
                -1.8625279096795566e-09,
                0.19931593537330627,
                7.216183917080343e-08
            ]
        },
        {
            "children" : [
                12
            ],
            "name" : "Spine1",
            "rotation" : [
                0.6214426755905151,
                -0.005106116179376841,
                -0.038598861545324326,
                0.7824917435646057
            ],
            "scale" : [
                0.9999999403953552,
                1,
                0.9999996423721313
            ],
            "translation" : [
                5.381063150622367e-09,
                0.5977303385734558,
                -0.48900267481803894
            ]
        },
        {
            "name" : "Harm4.R",
            "rotation" : [
                0.21715998649597168,
                -0.05037667602300644,
                0.04687004163861275,
                0.973707914352417
            ],
            "scale" : [
                0.9999999403953552,
                0.9999998807907104,
                0.9999999403953552
            ],
            "translation" : [
                3.28918510206222e-08,
                0.15366271138191223,
                4.3643191283138094e-09
            ]
        },
        {
            "children" : [
                14
            ],
            "name" : "Harm3.R",
            "rotation" : [
                0.30257150530815125,
                0.00552481459453702,
                0.02247031033039093,
                0.9528457522392273
            ],
            "scale" : [
                0.9999998807907104,
                0.9999998807907104,
                0.9999999403953552
            ],
            "translation" : [
                1.5156304655761232e-08,
                0.19334571063518524,
                2.6143128550870642e-08
            ]
        },
        {
            "children" : [
                15
            ],
            "name" : "Harm2.R",
            "rotation" : [
                0.18538524210453033,
                0.030271317809820175,
                0.040431469678878784,
                0.9813670516014099
            ],
            "scale" : [
                0.9999997615814209,
                0.9999998807907104,
                0.9999998807907104
            ],
            "translation" : [
                -9.199746742183379e-09,
                0.21784311532974243,
                2.06872075025899e-10
            ]
        },
        {
            "children" : [
                16
            ],
            "name" : "Harm1.R",
            "rotation" : [
                0.005024999845772982,
                0.27657291293144226,
                0.9590951204299927,
                0.06015632674098015
            ],
            "scale" : [
                0.9999998807907104,
                0.9999997615814209,
                1.0000001192092896
            ],
            "translation" : [
                -0.16804011166095734,
                0.3424999415874481,
                -0.4196835160255432
            ]
        },
        {
            "name" : "Leg5.R",
            "rotation" : [
                -0.2791537344455719,
                0.08876609057188034,
                -0.0201580710709095,
                0.9559223055839539
            ],
            "scale" : [
                0.9999999403953552,
                0.9999998807907104,
                0.9999998807907104
            ],
            "translation" : [
                -3.699069495155527e-09,
                0.15409719944000244,
                3.3218612305319084e-09
            ]
        },
        {
            "children" : [
                18
            ],
            "name" : "Leg4.R",
            "rotation" : [
                -0.13392049074172974,
                0.017625631764531136,
                0.17837364971637726,
                0.9746474623680115
            ],
            "translation" : [
                -2.5373521062022064e-09,
                0.08192512392997742,
                1.1786882581077407e-09
            ]
        },
        {
            "children" : [
                19
            ],
            "name" : "Leg3.R",
            "rotation" : [
                0.13458338379859924,
                0.007037029601633549,
                -0.1291680932044983,
                0.9824222326278687
            ],
            "scale" : [
                0.9999998211860657,
                0.9999999403953552,
                0.9999999403953552
            ],
            "translation" : [
                -1.0523294236008951e-08,
                0.1207139790058136,
                -2.8838776700013113e-08
            ]
        },
        {
            "children" : [
                20
            ],
            "name" : "Leg2.R",
            "rotation" : [
                -0.3092770576477051,
                0.023555155843496323,
                0.053948841989040375,
                0.9491482377052307
            ],
            "scale" : [
                1.0000001192092896,
                1,
                1.0000001192092896
            ],
            "translation" : [
                1.6961022808459347e-08,
                0.2999437749385834,
                4.887654725393986e-08
            ]
        },
        {
            "children" : [
                21
            ],
            "name" : "Leg1.R",
            "rotation" : [
                0.8687117099761963,
                -0.04250585660338402,
                0.02880699187517166,
                0.49264946579933167
            ],
            "scale" : [
                0.9999999403953552,
                0.9999999403953552,
                0.9999999403953552
            ],
            "translation" : [
                -0.18876048922538757,
                0.4658164083957672,
                0.36283114552497864
            ]
        },
        {
            "name" : "Nose",
            "rotation" : [
                -0.09769540280103683,
                -0.004095897078514099,
                0.010658622719347477,
                0.9951508641242981
            ],
            "scale" : [
                1,
                0.9999998807907104,
                1
            ],
            "translation" : [
                -7.450038363998601e-09,
                0.15370362997055054,
                -4.470333081485478e-08
            ]
        },
        {
            "children" : [
                23
            ],
            "name" : "Brain",
            "rotation" : [
                -0.3051058351993561,
                0.001016769791021943,
                0.0012507709907367826,
                0.9523171186447144
            ],
            "scale" : [
                1,
                1.0000001192092896,
                1
            ],
            "translation" : [
                7.450580596923828e-09,
                0.1610756665468216,
                -5.285319204517691e-08
            ]
        },
        {
            "children" : [
                24
            ],
            "name" : "Neck",
            "rotation" : [
                -0.4902040660381317,
                0.019449757412075996,
                0.05036372318863869,
                0.8699340224266052
            ],
            "translation" : [
                -7.587258005514741e-05,
                0.614658534526825,
                -0.6023768782615662
            ]
        },
        {
            "name" : "Harm4.L",
            "rotation" : [
                0.010763759724795818,
                0.057574473321437836,
                -0.0031132663134485483,
                0.9982783198356628
            ],
            "scale" : [
                0.9999999403953552,
                0.9999998807907104,
                0.9999998807907104
            ],
            "translation" : [
                -1.7542237884526912e-08,
                0.15366271138191223,
                -7.917552835579045e-09
            ]
        },
        {
            "children" : [
                26
            ],
            "name" : "Harm3.L",
            "rotation" : [
                0.2749349772930145,
                -0.002704941900447011,
                -0.0057180169969797134,
                0.9614420533180237
            ],
            "scale" : [
                0.9999997615814209,
                1,
                0.9999997615814209
            ],
            "translation" : [
                -8.331747514134236e-10,
                0.19334568083286285,
                1.5584735280071982e-08
            ]
        },
        {
            "children" : [
                27
            ],
            "name" : "Harm2.L",
            "rotation" : [
                0.3529423773288727,
                -0.041437096893787384,
                -0.03335540369153023,
                0.9341317415237427
            ],
            "scale" : [
                1,
                0.9999999403953552,
                1
            ],
            "translation" : [
                -9.787887833567765e-09,
                0.21784301102161407,
                -2.213672267714628e-08
            ]
        },
        {
            "children" : [
                28
            ],
            "name" : "Harm1.L",
            "rotation" : [
                0.012102841399610043,
                -0.17842447757720947,
                -0.9819504618644714,
                0.061574891209602356
            ],
            "scale" : [
                1,
                0.9999999403953552,
                1
            ],
            "translation" : [
                0.13692232966423035,
                0.35577064752578735,
                -0.4199197590351105
            ]
        },
        {
            "name" : "Leg5.L",
            "rotation" : [
                -0.3910287320613861,
                -0.1408875286579132,
                0.07017235457897186,
                0.9068203568458557
            ],
            "scale" : [
                0.9999999403953552,
                0.9999999403953552,
                0.9999999403953552
            ],
            "translation" : [
                4.574657097577983e-08,
                0.20875835418701172,
                -2.1654532389447922e-08
            ]
        },
        {
            "children" : [
                30
            ],
            "name" : "Leg4.L",
            "rotation" : [
                0.1349373161792755,
                0.04676256328821182,
                -0.4058208763599396,
                0.9027262330055237
            ],
            "scale" : [
                0.9999998211860657,
                0.9999997615814209,
                0.9999998211860657
            ],
            "translation" : [
                -1.3098091500296505e-09,
                0.09281935542821884,
                2.3360131606864343e-08
            ]
        },
        {
            "children" : [
                31
            ],
            "name" : "Leg3.L",
            "rotation" : [
                -0.0833556279540062,
                -0.020688876509666443,
                0.3121548295021057,
                0.946141242980957
            ],
            "scale" : [
                0.9999998211860657,
                1,
                0.9999999403953552
            ],
            "translation" : [
                3.9031917253851134e-08,
                0.10887857526540756,
                -6.706138755419033e-09
            ]
        },
        {
            "children" : [
                32
            ],
            "name" : "Leg2.L",
            "rotation" : [
                -0.2291327714920044,
                -0.0064775533974170685,
                -0.05039440467953682,
                0.9720682501792908
            ],
            "scale" : [
                1,
                0.9999999403953552,
                0.9999999403953552
            ],
            "translation" : [
                3.684023752725807e-09,
                0.29994386434555054,
                -8.235526927080628e-09
            ]
        },
        {
            "children" : [
                33
            ],
            "name" : "Leg1.L",
            "rotation" : [
                0.9046165943145752,
                0.03316985443234444,
                -0.03234514221549034,
                0.4237009286880493
            ],
            "scale" : [
                0.9999999403953552,
                0.9999999403953552,
                1
            ],
            "translation" : [
                0.18187561631202698,
                0.45646142959594727,
                0.36167392134666443
            ]
        },
        {
            "children" : [
                13,
                17,
                22,
                25,
                29,
                34
            ],
            "name" : "amature_castor",
            "rotation" : [
                0,
                0.9999648928642273,
                0,
                0.008379794657230377
            ],
            "translation" : [
                -6.3690948486328125,
                21.283170700073242,
                11.31674575805664
            ]
        }
    ],
    "materials" : [
        {
            "doubleSided" : true,
            "name" : "terrain",
            "pbrMetallicRoughness" : {
                "baseColorTexture" : {
                    "extensions" : {
                        "KHR_texture_transform" : {
                            "offset" : [
                                0,
                                -14
                            ],
                            "scale" : [
                                10,
                                15
                            ]
                        }
                    },
                    "index" : 0,
                    "texCoord" : 0
                },
                "metallicFactor" : 0
            }
        }
    ],
    "meshes" : [
        {
            "name" : "Plane",
            "primitives" : [
                {
                    "attributes" : {
                        "POSITION" : 0,
                        "NORMAL" : 1,
                        "TEXCOORD_0" : 2,
                        "TEXCOORD_1" : 3
                    },
                    "indices" : 4,
                    "material" : 0
                }
            ]
        }
    ],
    "textures" : [
        {
            "sampler" : 0,
            "source" : 0
        }
    ],
    "images" : [
        {
            "mimeType" : "image/png",
            "name" : "brown_mud_leaves_dessin_2",
            "uri" : "brown_mud_leaves_dessin_2.png"
        }
    ],
    "accessors" : [
        {
            "bufferView" : 0,
            "componentType" : 5126,
            "count" : 586,
            "max" : [
                78.85043334960938,
                3.641252040863037,
                154.5535888671875
            ],
            "min" : [
                -46.226905822753906,
                -0.8449133038520813,
                -136.60577392578125
            ],
            "type" : "VEC3"
        },
        {
            "bufferView" : 1,
            "componentType" : 5126,
            "count" : 586,
            "type" : "VEC3"
        },
        {
            "bufferView" : 2,
            "componentType" : 5126,
            "count" : 586,
            "type" : "VEC2"
        },
        {
            "bufferView" : 3,
            "componentType" : 5126,
            "count" : 586,
            "type" : "VEC2"
        },
        {
            "bufferView" : 4,
            "componentType" : 5123,
            "count" : 3060,
            "type" : "SCALAR"
        }
    ],
    "bufferViews" : [
        {
            "buffer" : 0,
            "byteLength" : 7032,
            "byteOffset" : 0
        },
        {
            "buffer" : 0,
            "byteLength" : 7032,
            "byteOffset" : 7032
        },
        {
            "buffer" : 0,
            "byteLength" : 4688,
            "byteOffset" : 14064
        },
        {
            "buffer" : 0,
            "byteLength" : 4688,
            "byteOffset" : 18752
        },
        {
            "buffer" : 0,
            "byteLength" : 6120,
            "byteOffset" : 23440
        }
    ],
    "samplers" : [
        {
            "magFilter" : 9729,
            "minFilter" : 9986
        }
    ],
    "buffers" : [
        {
            "byteLength" : 29560,
            "uri" : "scene.bin"
        }
    ]
}
