{
    "asset" : {
        "generator" : "Khronos glTF Blender I/O v1.2.75",
        "version" : "2.0"
    },
    "scene" : 0,
    "scenes" : [
        {
            "name" : "Scene",
            "nodes" : [
                0,
                1,
                2
            ]
        }
    ],
    "nodes" : [
        {
            "mesh" : 0,
            "name" : "Sol",
            "scale" : [
                1,
                3.5,
                1
            ]
        },
        {
            "name" : "Camera",
            "rotation" : [
                -0.13653334975242615,
                -0.6182876229286194,
                0.766136884689331,
                -0.1100604459643364
            ],
            "scale" : [
                1.0000029802322388,
                1,
                1
            ],
            "translation" : [
                -11.442303657531738,
                5.018421173095703,
                8.097816467285156
            ]
        },
        {
            "name" : "Sun",
            "rotation" : [
                -0.48126864433288574,
                0,
                -0.1282583624124527,
                0.8671391606330872
            ],
            "translation" : [
                -5,
                14,
                -14
            ]
        }
    ],
    "materials" : [
        {
            "doubleSided" : true,
            "emissiveFactor" : [
                0,
                0,
                0
            ],
            "name" : "Stone",
            "pbrMetallicRoughness" : {
                "baseColorFactor" : [
                    0.42002442479133606,
                    0.28933393955230713,
                    0.2521764636039734,
                    1
                ],
                "metallicFactor" : 0,
                "roughnessFactor" : 0.5
            }
        },
        {
            "doubleSided" : true,
            "emissiveFactor" : [
                0,
                0,
                0
            ],
            "name" : "dirt",
            "pbrMetallicRoughness" : {
                "baseColorFactor" : [
                    0.32637616991996765,
                    0.1486043781042099,
                    0.11603612452745438,
                    1
                ],
                "metallicFactor" : 0,
                "roughnessFactor" : 0.5
            }
        }
    ],
    "meshes" : [
        {
            "name" : "Plane",
            "primitives" : [
                {
                    "attributes" : {
                        "POSITION" : 0,
                        "NORMAL" : 1,
                        "TEXCOORD_0" : 2,
                        "JOINTS_0" : 3,
                        "WEIGHTS_0" : 4
                    },
                    "indices" : 5,
                    "material" : 0
                },
                {
                    "attributes" : {
                        "POSITION" : 6,
                        "NORMAL" : 7,
                        "TEXCOORD_0" : 8,
                        "JOINTS_0" : 9,
                        "WEIGHTS_0" : 10
                    },
                    "indices" : 11,
                    "material" : 1
                }
            ]
        }
    ],
    "accessors" : [
        {
            "bufferView" : 0,
            "componentType" : 5126,
            "count" : 654,
            "max" : [
                78.85043334960938,
                3.612346887588501,
                154.5547332763672
            ],
            "min" : [
                -42.263938903808594,
                -0.8460148572921753,
                -136.60577392578125
            ],
            "type" : "VEC3"
        },
        {
            "bufferView" : 1,
            "componentType" : 5126,
            "count" : 654,
            "type" : "VEC3"
        },
        {
            "bufferView" : 2,
            "componentType" : 5126,
            "count" : 654,
            "type" : "VEC2"
        },
        {
            "bufferView" : 3,
            "componentType" : 5123,
            "count" : 654,
            "type" : "VEC4"
        },
        {
            "bufferView" : 4,
            "componentType" : 5126,
            "count" : 654,
            "type" : "VEC4"
        },
        {
            "bufferView" : 5,
            "componentType" : 5123,
            "count" : 3276,
            "type" : "SCALAR"
        },
        {
            "bufferView" : 6,
            "componentType" : 5126,
            "count" : 545,
            "max" : [
                54.4888916015625,
                4.15947961807251,
                108.06367492675781
            ],
            "min" : [
                -47.91425323486328,
                0.05127641558647156,
                -58.40970993041992
            ],
            "type" : "VEC3"
        },
        {
            "bufferView" : 7,
            "componentType" : 5126,
            "count" : 545,
            "type" : "VEC3"
        },
        {
            "bufferView" : 8,
            "componentType" : 5126,
            "count" : 545,
            "type" : "VEC2"
        },
        {
            "bufferView" : 9,
            "componentType" : 5123,
            "count" : 545,
            "type" : "VEC4"
        },
        {
            "bufferView" : 10,
            "componentType" : 5126,
            "count" : 545,
            "type" : "VEC4"
        },
        {
            "bufferView" : 11,
            "componentType" : 5123,
            "count" : 2835,
            "type" : "SCALAR"
        }
    ],
    "bufferViews" : [
        {
            "buffer" : 0,
            "byteLength" : 7848,
            "byteOffset" : 0
        },
        {
            "buffer" : 0,
            "byteLength" : 7848,
            "byteOffset" : 7848
        },
        {
            "buffer" : 0,
            "byteLength" : 5232,
            "byteOffset" : 15696
        },
        {
            "buffer" : 0,
            "byteLength" : 5232,
            "byteOffset" : 20928
        },
        {
            "buffer" : 0,
            "byteLength" : 10464,
            "byteOffset" : 26160
        },
        {
            "buffer" : 0,
            "byteLength" : 6552,
            "byteOffset" : 36624
        },
        {
            "buffer" : 0,
            "byteLength" : 6540,
            "byteOffset" : 43176
        },
        {
            "buffer" : 0,
            "byteLength" : 6540,
            "byteOffset" : 49716
        },
        {
            "buffer" : 0,
            "byteLength" : 4360,
            "byteOffset" : 56256
        },
        {
            "buffer" : 0,
            "byteLength" : 4360,
            "byteOffset" : 60616
        },
        {
            "buffer" : 0,
            "byteLength" : 8720,
            "byteOffset" : 64976
        },
        {
            "buffer" : 0,
            "byteLength" : 5670,
            "byteOffset" : 73696
        }
    ],
    "buffers" : [
        {
            "byteLength" : 79368,
            "uri" : "scene3.bin"
        }
    ]
}
