{
    "asset" : {
        "generator" : "Khronos glTF Blender I/O v1.3.48",
        "version" : "2.0"
    },
    "scene" : 0,
    "scenes" : [
        {
            "name" : "Scene",
            "nodes" : [
                0,
                1,
                2,
                3
            ]
        }
    ],
    "nodes" : [
        {
            "name" : "ground+river"
        },
        {
            "name" : "reeds"
        },
        {
            "name" : "Pont"
        },
        {
            "mesh" : 0,
            "name" : "Trees",
            "translation" : [
                0,
                16.81368064880371,
                0
            ]
        }
    ],
    "materials" : [
        {
            "alphaCutoff" : 0.800000011920929,
            "alphaMode" : "MASK",
            "doubleSided" : true,
            "emissiveFactor" : [
                0,
                0,
                0
            ],
            "name" : "TreeAtlas",
            "pbrMetallicRoughness" : {
                "baseColorTexture" : {
                    "index" : 0,
                    "texCoord" : 0
                },
                "metallicFactor" : 0,
                "roughnessFactor" : 1
            }
        }
    ],
    "meshes" : [
        {
            "name" : "Plane.001",
            "primitives" : [
                {
                    "attributes" : {
                        "POSITION" : 0,
                        "TEXCOORD_0" : 1
                    },
                    "indices" : 2,
                    "material" : 0
                }
            ]
        }
    ],
    "textures" : [
        {
            "source" : 0
        }
    ],
    "images" : [
        {
            "mimeType" : "image/png",
            "name" : "trees",
            "uri" : "trees.png"
        }
    ],
    "accessors" : [
        {
            "bufferView" : 0,
            "componentType" : 5126,
            "count" : 184,
            "max" : [
                52.1146240234375,
                36.2149772644043,
                133.43017578125
            ],
            "min" : [
                -45.069480895996094,
                0.0822148323059082,
                -65.59992218017578
            ],
            "type" : "VEC3"
        },
        {
            "bufferView" : 1,
            "componentType" : 5126,
            "count" : 184,
            "type" : "VEC2"
        },
        {
            "bufferView" : 2,
            "componentType" : 5123,
            "count" : 276,
            "type" : "SCALAR"
        }
    ],
    "bufferViews" : [
        {
            "buffer" : 0,
            "byteLength" : 2208,
            "byteOffset" : 0
        },
        {
            "buffer" : 0,
            "byteLength" : 1472,
            "byteOffset" : 2208
        },
        {
            "buffer" : 0,
            "byteLength" : 552,
            "byteOffset" : 3680
        }
    ],
    "buffers" : [
        {
            "byteLength" : 4232,
            "uri" : "scene.bin"
        }
    ]
}
